<svg width="800" height="800" viewBox="0 0 800 800" fill="none" xmlns="http://www.w3.org/2000/svg">
<path d="M400 66.6667C215.905 66.6667 66.667 215.905 66.667 400C66.667 447.407 76.5637 492.503 94.4033 533.333H705.597C723.437 492.503 733.334 447.407 733.334 400C733.334 384.577 710.217 382.027 702.24 395.227C664.297 458.02 595.384 500 516.667 500C397.004 500 300 402.997 300 283.333C300 204.615 341.98 135.702 404.774 97.7587C417.974 89.7823 415.424 66.6667 400 66.6667Z" fill="#A2BDE0"/>
<path fill-rule="evenodd" clip-rule="evenodd" d="M41.667 533.333C41.667 519.527 52.86 508.333 66.667 508.333H733.334C747.14 508.333 758.334 519.527 758.334 533.333C758.334 547.14 747.14 558.333 733.334 558.333H66.667C52.86 558.333 41.667 547.14 41.667 533.333ZM241.667 733.333C241.667 719.527 252.86 708.333 266.667 708.333H533.334C547.14 708.333 558.334 719.527 558.334 733.333C558.334 747.14 547.14 758.333 533.334 758.333H266.667C252.86 758.333 241.667 747.14 241.667 733.333Z" fill="#E11837"/>
<path d="M141.667 633.333C141.667 619.527 152.86 608.333 166.667 608.333H633.334C647.14 608.333 658.334 619.527 658.334 633.333C658.334 647.14 647.14 658.333 633.334 658.333H166.667C152.86 658.333 141.667 647.14 141.667 633.333Z" fill="#A2BDE0"/>
<path d="M663.337 76.9063C657.974 63.2533 638.72 63.2533 633.357 76.9063L619.01 113.416C617.374 117.584 614.087 120.884 609.934 122.528L573.557 136.927C559.954 142.311 559.954 161.633 573.557 167.018L609.934 181.417C614.087 183.061 617.374 186.361 619.01 190.529L633.357 227.038C638.72 240.691 657.974 240.691 663.337 227.039L677.684 190.529C679.32 186.361 682.607 183.061 686.76 181.417L723.137 167.018C736.74 161.633 736.74 142.311 723.137 136.927L686.76 122.528C682.607 120.884 679.32 117.584 677.684 113.416L663.337 76.9063Z" fill="#E11837"/>
<path d="M534.427 270.989C529.06 257.336 509.81 257.336 504.443 270.989L499.213 284.301C497.577 288.469 494.29 291.768 490.137 293.412L476.873 298.662C463.27 304.047 463.27 323.369 476.873 328.754L490.137 334.003C494.29 335.647 497.577 338.947 499.213 343.117L504.443 356.427C509.81 370.08 529.06 370.08 534.427 356.427L539.657 343.117C541.293 338.947 544.58 335.647 548.733 334.003L561.997 328.754C575.6 323.369 575.6 304.047 561.997 298.662L548.733 293.412C544.58 291.768 541.293 288.469 539.657 284.301L534.427 270.989Z" fill="#E11837"/>
</svg>
