<svg width="800" height="800" viewBox="0 0 800 800" fill="none" xmlns="http://www.w3.org/2000/svg">
<path d="M566.666 400C566.666 492.047 492.046 566.667 400 566.667C307.952 566.667 233.333 492.047 233.333 400C233.333 307.953 307.952 233.333 400 233.333C492.046 233.333 566.666 307.953 566.666 400Z" fill="#E11837"/>
<path fill-rule="evenodd" clip-rule="evenodd" d="M400 41.6667C413.807 41.6667 425 52.8597 425 66.6667V133.333C425 147.14 413.807 158.333 400 158.333C386.194 158.333 375 147.14 375 133.333V66.6667C375 52.8597 386.194 41.6667 400 41.6667ZM41.667 400C41.667 386.193 52.86 375 66.667 375H133.334C147.141 375 158.334 386.193 158.334 400C158.334 413.807 147.141 425 133.334 425H66.667C52.86 425 41.667 413.807 41.667 400ZM641.667 400C641.667 386.193 652.86 375 666.667 375H733.334C747.14 375 758.334 386.193 758.334 400C758.334 413.807 747.14 425 733.334 425H666.667C652.86 425 641.667 413.807 641.667 400ZM400 641.667C413.807 641.667 425 652.86 425 666.667V733.333C425 747.14 413.807 758.333 400 758.333C386.194 758.333 375 747.14 375 733.333V666.667C375 652.86 386.194 641.667 400 641.667Z" fill="#E11837"/>
<path d="M122.306 123.853C131.623 113.663 147.436 112.956 157.626 122.272L231.694 189.992C241.884 199.308 242.591 215.122 233.275 225.312C223.958 235.502 208.145 236.21 197.955 226.893L123.888 159.173C113.698 149.857 112.99 134.043 122.306 123.853Z" fill="#A2BDE0"/>
<path d="M677.73 123.853C687.046 134.043 686.34 149.857 676.15 159.173L602.08 226.893C591.89 236.21 576.076 235.502 566.76 225.312C557.443 215.122 558.153 199.308 568.343 189.992L642.41 122.272C652.6 112.956 668.413 113.663 677.73 123.853Z" fill="#A2BDE0"/>
<path d="M567.536 567.49C577.299 557.727 593.126 557.73 602.889 567.493L676.956 641.57C686.719 651.333 686.719 667.16 676.956 676.923C667.193 686.687 651.363 686.687 641.599 676.92L567.533 602.847C557.769 593.08 557.773 577.253 567.536 567.49Z" fill="#A2BDE0"/>
<path d="M232.507 567.497C242.27 577.257 242.27 593.087 232.507 602.85L158.433 676.923C148.669 686.687 132.84 686.687 123.077 676.923C113.314 667.16 113.314 651.333 123.077 641.57L197.151 567.493C206.914 557.733 222.744 557.733 232.507 567.497Z" fill="#A2BDE0"/>
</svg>
